<svg width="512" height="512" viewBox="0 0 512 512" fill="none" xmlns="http://www.w3.org/2000/svg">
  <!-- Stone background - organic rounded rectangle -->
  <defs>
    <!-- Subtle stone texture gradient -->
    <radialGradient id="stoneGradient" cx="0.3" cy="0.3">
      <stop offset="0%" style="stop-color:#E8E8E8;stop-opacity:1" />
      <stop offset="50%" style="stop-color:#D0D0D0;stop-opacity:1" />
      <stop offset="100%" style="stop-color:#B8B8B8;stop-opacity:1" />
    </radialGradient>

    <!-- Shadow for depth -->
    <filter id="stoneShadow" x="-50%" y="-50%" width="200%" height="200%">
      <feGaussianBlur in="SourceAlpha" stdDeviation="8"/>
      <feOffset dx="4" dy="6" result="offsetblur"/>
      <feComponentTransfer>
        <feFuncA type="linear" slope="0.3"/>
      </feComponentTransfer>
      <feMerge>
        <feMergeNode/>
        <feMergeNode in="SourceGraphic"/>
      </feMerge>
    </filter>
  </defs>

  <!-- Stone base - organic shape -->
  <rect x="32" y="32" width="448" height="448" rx="120"
        fill="url(#stoneGradient)"
        filter="url(#stoneShadow)"/>

  <!-- Zen swirl - single continuous path -->
  <path d="
    M 256 140
    C 320 140, 372 192, 372 256
    C 372 320, 320 372, 256 372
    C 192 372, 140 320, 140 256
    C 140 210, 165 170, 200 150

    M 256 180
    C 298 180, 332 214, 332 256
    C 332 298, 298 332, 256 332
    C 214 332, 180 298, 180 256
    C 180 228, 195 204, 218 192

    M 256 220
    C 276 220, 292 236, 292 256
    C 292 276, 276 292, 256 292
    C 236 292, 220 276, 220 256
    C 220 246, 225 238, 233 234
  "
  stroke="#4A4A4A"
  stroke-width="12"
  stroke-linecap="round"
  stroke-linejoin="round"
  fill="none"
  opacity="0.85"/>

  <!-- Center dot -->
  <circle cx="256" cy="256" r="18" fill="#4A4A4A" opacity="0.85"/>
</svg>
